<svg xmlns="http://www.w3.org/2000/svg" width="640" height="490" viewBox="0 0 640 490" fill="none"><defs><pattern id="grid" width="24" height="24" patternUnits="userSpaceOnUse"><circle cx="1" cy="1" r="1" fill="#718879" opacity=".23"/></pattern></defs><rect width="640" height="490" fill="#dce5d7"/><rect width="640" height="490" fill="url(#grid)"/><g stroke="#899b89"><circle cx="320" cy="245" r="171"/><circle cx="320" cy="245" r="129" stroke-dasharray="3 8"/><path d="M320 40v410M112 245h416" stroke-dasharray="3 8"/><path d="M198 125 444 365M196 366 444 125"/></g><circle cx="320" cy="245" r="82" fill="#163a2c"/><path d="m280 276 40-80 40 80m-66-24h52" stroke="#f6f4e8" stroke-width="3"/><circle cx="320" cy="74" r="13" fill="#f4bb64" stroke="#163a2c"/><circle cx="491" cy="245" r="13" fill="#f4bb64" stroke="#163a2c"/><circle cx="320" cy="416" r="13" fill="#f4bb64" stroke="#163a2c"/><circle cx="149" cy="245" r="13" fill="#f4bb64" stroke="#163a2c"/><g fill="#173b2c" font-family="monospace" font-size="12" letter-spacing="2"><text x="347" y="78">OWNER</text><text x="512" y="249">WORK</text><text x="348" y="420">PROOF</text><text x="50" y="249">REVIEW</text></g><g fill="#173b2c" font-family="monospace" font-size="10" letter-spacing="2"><text x="26" y="31">ARCTURA / FIELD METHOD 01</text><text x="26" y="469">CLEAR AUTHORITY. INSPECTABLE WORK.</text></g></svg>
